<?xml version="1.0" encoding="utf-8"?>
<!-- Generator: Adobe Illustrator 16.0.0, SVG Export Plug-In . SVG Version: 6.00 Build 0)  -->
<!DOCTYPE svg PUBLIC "-//W3C//DTD SVG 1.1//EN" "http://www.w3.org/Graphics/SVG/1.1/DTD/svg11.dtd">
<svg version="1.1" id="图层_1" xmlns="http://www.w3.org/2000/svg" xmlns:xlink="http://www.w3.org/1999/xlink" x="0px" y="0px"
	 width="1280px" height="800px" viewBox="0 0 1280 800" enable-background="new 0 0 1280 800" xml:space="preserve">
<g>
	<circle fill="#FFB752" cx="76.739" cy="76.064" r="75.739"/>
	<path fill="#FFB752" d="M152.477,76.064c0,41.827-33.91,75.738-75.739,75.738c-15.502,0-29.919-4.659-41.922-12.672
		c-0.512-0.325-1.012-0.668-1.504-1.025c-1.055-0.73-2.09-1.494-3.103-2.286c-6.675-5.204-12.452-11.492-17.06-18.627h20.162V46.041
		c0-6.05,4.91-10.958,10.969-10.958h32.897V27.31c0-6.06,4.91-10.968,10.969-10.968h35.164c10.989,8.564,19.545,20.11,24.466,33.407
		C150.816,57.951,152.477,66.807,152.477,76.064z"/>
	<g>
		<path fill="#B8D1E6" d="M140.643,22.33c-5.388,0-9.758,4.367-9.758,9.758v7.242h19.516v-7.242
			C150.401,26.697,146.031,22.33,140.643,22.33z"/>
		<path fill="#E1EFFA" d="M77.817,22.33c-5.389,0-9.758,4.367-9.758,9.758v40.437h53.067c5.39,0,9.759-4.367,9.759-9.757v-30.68
			c0-5.391,4.37-9.758,9.758-9.758H77.817z"/>
		<g>
			<g>
				<path fill="#FF6D3B" d="M86.463,40.061l-7.116,8.787c-4.853-3.929-5.602-11.049-1.671-15.902
					c2.207-2.728,5.278-4.191,8.787-4.191V40.061z"/>
				<path fill="#B8D1E6" d="M86.463,40.061l-0.986,11.264c-2.332-0.204-4.31-1.003-6.129-2.478L86.463,40.061z"/>
				<path fill="#21D8DE" d="M86.463,40.061l10.074-5.133c2.835,5.564,0.624,12.374-4.941,15.208c-1.97,1.003-3.916,1.38-6.119,1.189
					L86.463,40.061z"/>
				<path fill="#2A445E" d="M86.463,40.061V28.754c4.421,0,8.066,2.235,10.074,6.173L86.463,40.061z"/>
			</g>
			<g>
				<g>
					<rect x="112.253" y="29.935" fill="#B8D1E6" width="7.306" height="1.556"/>
					<rect x="120.718" y="29.935" fill="#B8D1E6" width="3.065" height="1.556"/>
				</g>
			</g>
			<rect x="112.253" y="42.402" fill="#B8D1E6" width="11.53" height="1.556"/>
			<g>
				<g>
					<rect x="121.962" y="48.637" fill="#B8D1E6" width="1.821" height="1.554"/>
					<rect x="112.253" y="48.637" fill="#B8D1E6" width="8.735" height="1.554"/>
				</g>
			</g>
			<g>
				<g>
					<rect x="112.253" y="36.17" fill="#B8D1E6" width="2.134" height="1.554"/>
					<rect x="115.874" y="36.17" fill="#B8D1E6" width="3.247" height="1.554"/>
					<rect x="120.537" y="36.17" fill="#B8D1E6" width="3.247" height="1.554"/>
				</g>
			</g>
			<g>
				<circle fill="#2A445E" cx="108.145" cy="30.714" r="1.958"/>
				<circle fill="#B8D1E6" cx="108.145" cy="36.947" r="1.958"/>
				<circle fill="#FF6D3B" cx="108.145" cy="43.181" r="1.958"/>
				<circle fill="#21D8DE" cx="108.145" cy="49.414" r="1.958"/>
			</g>
		</g>
		<path fill="#F2F9FF" d="M101.611,39.006c-5.389,0-9.759,4.369-9.759,9.758v73.081c0,5.392-4.37,9.758-9.758,9.758H29.025V48.764
			c0-5.389,4.37-9.758,9.759-9.758H101.611z"/>
		<g>
			<g>
				<g>
					<g>
						<g>
							<rect x="36.108" y="80.125" fill="#CEE2F2" width="6.185" height="6.521"/>
							<rect x="46.725" y="69.093" fill="#CEE2F2" width="6.187" height="17.553"/>
							<rect x="57.343" y="73.911" fill="#CEE2F2" width="6.185" height="12.735"/>
							<rect x="67.962" y="60.456" fill="#CEE2F2" width="6.183" height="26.19"/>
							<rect x="78.579" y="64.296" fill="#CEE2F2" width="6.187" height="22.35"/>
						</g>
					</g>
					<g>
						<g>
							<rect x="36.108" y="85.109" fill="#FF6D3B" width="6.185" height="1.537"/>
							<rect x="46.725" y="82.513" fill="#FF6D3B" width="6.187" height="4.133"/>
							<rect x="57.343" y="83.646" fill="#FF6D3B" width="6.185" height="3"/>
							<rect x="67.962" y="80.477" fill="#FF6D3B" width="6.183" height="6.169"/>
							<rect x="78.579" y="81.38" fill="#FF6D3B" width="6.187" height="5.266"/>
						</g>
					</g>
					<rect x="36.108" y="77.464" fill="#21D8DE" width="6.185" height="2.66"/>
					<rect x="46.725" y="60.828" fill="#21D8DE" width="6.187" height="8.265"/>
					<rect x="57.343" y="72.218" fill="#21D8DE" width="6.185" height="1.693"/>
					<rect x="67.962" y="56.527" fill="#21D8DE" width="6.183" height="3.928"/>
					<rect x="78.579" y="54.148" fill="#21D8DE" width="6.187" height="10.148"/>
				</g>
				<rect x="36.108" y="89.604" fill="#2A445E" width="48.658" height="2.416"/>
			</g>
			<g>
				<g>
					<rect x="50.391" y="99.188" fill="#B8D1E6" width="34.323" height="1.411"/>
					<rect x="36.108" y="99.188" fill="#B8D1E6" width="11.604" height="1.411"/>
					<rect x="36.108" y="103.552" fill="#B8D1E6" width="48.606" height="1.409"/>
					<rect x="36.108" y="107.914" fill="#B8D1E6" width="24.303" height="1.41"/>
				</g>
			</g>
		</g>
		<path fill="#B8D1E6" d="M111.368,62.769V48.764c0-5.389-4.37-9.758-9.758-9.758c-5.388,0-9.757,4.369-9.757,9.758v23.761h29.273
			C115.739,72.525,111.368,68.158,111.368,62.769z"/>
		<path fill="#CEE2F2" d="M29.025,121.845v9.758h-9.758C24.658,131.603,29.025,127.236,29.025,121.845z"/>
		<path fill="#CEE2F2" d="M82.095,131.603H19.268c-5.389,0-9.757-4.367-9.757-9.758v-9.768H72.34v9.768
			C72.339,127.236,76.706,131.602,82.095,131.603z"/>
	</g>
</g>
<g>
	<circle fill="#E1EFFA" cx="670.959" cy="75.901" r="75.901"/>
	<g>
		<rect x="621.33" y="52.297" fill="#87B87F" width="20.243" height="57.614"/>
		<rect x="651.54" y="30.084" fill="#288BE7" width="20.17" height="79.827"/>
		<rect x="681.674" y="59.875" fill="#FFB752" width="20.259" height="50.037"/>
		<rect x="711.842" y="43.384" fill="#FF6D3B" width="20.211" height="66.527"/>
		<polygon fill="#50667E" points="615.903,109.983 615.903,35.23 613.638,35.23 613.638,35.845 615.232,35.845 615.232,45.905 
			613.638,45.905 613.638,46.528 615.232,46.528 615.232,56.59 613.638,56.59 613.638,57.203 615.232,57.203 615.232,67.265 
			613.638,67.265 613.638,67.886 615.232,67.886 615.232,77.948 613.638,77.948 613.638,78.561 615.232,78.561 615.232,88.623 
			613.638,88.623 613.638,89.245 615.232,89.245 615.232,99.307 613.638,99.307 613.638,99.921 615.232,99.921 615.232,110.586 
			734.852,110.586 734.852,109.983 		"/>
	</g>
</g>
<g>
	<circle fill="#54C29D" cx="284.844" cy="76.064" r="75.738"/>
	<g>
		<g>
			<rect x="281.846" y="107.911" fill="#50667E" width="2.521" height="6.471"/>
			<path fill="#FFFFFF" d="M283.105,112.567c-3.248,0-5.884,2.635-5.884,5.884c0,3.25,2.636,5.885,5.884,5.885
				c3.25,0,5.884-2.634,5.884-5.885C288.989,115.202,286.355,112.567,283.105,112.567z M283.105,121.814
				c-1.856,0-3.362-1.505-3.362-3.363c0-1.855,1.506-3.361,3.362-3.361c1.857,0,3.362,1.505,3.362,3.361
				C286.468,120.309,284.962,121.814,283.105,121.814z"/>
		</g>
		<rect x="230.365" y="26.675" fill="#F2F9FF" width="105.49" height="77.354"/>
		<g>
			<rect x="229.161" y="17.304" fill="#2A445E" width="107.896" height="9.372"/>
			<g>
				<g>
					<rect x="226.964" y="16.937" fill="#20364D" width="2.812" height="10.106"/>
					<rect x="336.438" y="16.937" fill="#20364D" width="2.81" height="10.106"/>
				</g>
			</g>
		</g>
		<g>
			<rect x="229.161" y="104.029" fill="#2A445E" width="107.896" height="3.882"/>
			<g>
				<g>
					<rect x="226.964" y="103.75" fill="#20364D" width="2.812" height="4.446"/>
					<rect x="336.438" y="103.75" fill="#20364D" width="2.81" height="4.446"/>
				</g>
			</g>
		</g>
		<g>
			<g>
				<polygon fill="#FFD55C" points="255.336,48.495 239.779,81.741 270.896,81.741 				"/>
				<polygon fill="#FF6D3B" points="294.331,35.996 270.932,81.741 317.736,81.741 				"/>
				<polygon fill="#21D8DE" points="309.441,48.495 292.446,81.741 326.447,81.741 				"/>
				<polygon fill="#06B2B8" points="292.446,81.741 317.736,81.741 305.087,57.018 				"/>
				<polygon fill="#2A445E" points="273.773,57.521 261.386,81.741 286.167,81.741 				"/>
				<polygon fill="#50667E" points="261.386,81.741 270.896,81.741 266.352,72.031 				"/>
				<polygon fill="#20364D" points="270.932,81.741 286.167,81.741 278.548,66.852 				"/>
			</g>
			<g>
				<rect x="239.779" y="93.972" fill="#FFD55C" width="15.586" height="2.393"/>
				<rect x="263.475" y="93.972" fill="#2A445E" width="15.585" height="2.393"/>
				<rect x="287.168" y="93.972" fill="#FF6D3B" width="15.582" height="2.393"/>
				<rect x="310.861" y="93.972" fill="#21D8DE" width="15.585" height="2.393"/>
			</g>
		</g>
	</g>
</g>
<g>
	<circle fill="#67B0E0" cx="473.511" cy="75.901" r="75.901"/>
	<g>
		<rect x="425.527" y="113.772" fill="#FFFFFF" width="95.967" height="4.332"/>
		<g>
			<g>
				<rect x="425.527" y="98.642" fill="#FFD55C" width="7.455" height="12.286"/>
				<rect x="435.361" y="87.247" fill="#FFD55C" width="7.455" height="23.68"/>
				<rect x="445.197" y="92.499" fill="#FFD55C" width="7.455" height="18.428"/>
				<rect x="455.032" y="72.112" fill="#FFD55C" width="7.455" height="38.814"/>
				<rect x="464.867" y="78.107" fill="#FFD55C" width="7.453" height="32.82"/>
				<rect x="474.702" y="57.363" fill="#FFD55C" width="7.455" height="53.563"/>
				<rect x="484.537" y="83.077" fill="#FFD55C" width="7.453" height="27.851"/>
				<rect x="494.37" y="88.583" fill="#FFD55C" width="7.454" height="22.345"/>
				<rect x="504.205" y="66.238" fill="#FFD55C" width="7.454" height="44.688"/>
				<rect x="514.038" y="42.282" fill="#FFD55C" width="7.456" height="68.646"/>
			</g>
		</g>
		<path fill="#FFFFFF" d="M429.254,89.935c-0.118,0-0.236-0.038-0.342-0.109c-0.276-0.188-0.347-0.564-0.158-0.841l10.032-14.714
			l9.774,0.771l9.877-19.961l9.884,2.788l10.157-16.113l10.275,19.804l9.096,8.763l9.537-25.724l9.881-14.107
			c0.193-0.275,0.569-0.34,0.85-0.149c0.271,0.193,0.34,0.569,0.146,0.846l-9.79,13.977l-10.129,27.32l-10.572-10.189l-0.049-0.088
			l-9.346-18.014l-9.512,15.09l-9.785-2.76l-9.795,19.794l-9.896-0.782l-9.639,14.131C429.638,89.839,429.448,89.935,429.254,89.935
			z"/>
		<g>
			<g>
				<path fill="#CEE2F2" d="M441.257,74.903c0,1.198-0.971,2.168-2.169,2.168c-1.195,0-2.165-0.97-2.165-2.168
					c0-1.197,0.97-2.165,2.165-2.165C440.286,72.738,441.257,73.707,441.257,74.903z"/>
				<circle fill="#CEE2F2" cx="448.924" cy="75.682" r="2.167"/>
				<circle fill="#CEE2F2" cx="458.759" cy="55.801" r="2.168"/>
				<circle fill="#CEE2F2" cx="468.594" cy="58.575" r="2.167"/>
				<circle fill="#CEE2F2" cx="478.428" cy="42.975" r="2.167"/>
				<circle fill="#CEE2F2" cx="488.263" cy="61.928" r="2.167"/>
				<circle fill="#CEE2F2" cx="498.098" cy="71.404" r="2.167"/>
				<circle fill="#CEE2F2" cx="507.932" cy="44.88" r="2.167"/>
				<path fill="#CEE2F2" d="M519.935,30.839c0,1.197-0.972,2.17-2.167,2.17c-1.194,0-2.168-0.973-2.168-2.17
					c0-1.195,0.974-2.165,2.168-2.165C518.963,28.674,519.935,29.644,519.935,30.839z"/>
				<circle fill="#CEE2F2" cx="429.255" cy="89.325" r="2.167"/>
			</g>
		</g>
	</g>
</g>
<g id="XMLID_28_">
	<g>
		<polygon fill="#288BE7" points="166.737,215.151 166.737,282.323 114.614,282.323 114.614,215.151 122.756,215.151 
			122.756,217.282 116.809,217.282 116.809,280.191 164.542,280.191 164.542,217.282 158.593,217.282 158.593,215.151 		"/>
		<path fill="#288BE7" d="M161.809,274.27c0.197,0,0.357,0.161,0.357,0.357s-0.16,0.356-0.357,0.356h-20.776
			c-0.197,0-0.357-0.16-0.357-0.356c0-0.03,0.004-0.059,0.012-0.087c-0.007-0.027-0.012-0.058-0.012-0.086v-20.777
			c0-0.196,0.16-0.355,0.357-0.355c0.196,0,0.356,0.16,0.356,0.355v20.593H161.809L161.809,274.27z"/>
		<polygon fill="#288BE7" points="160.622,256.676 160.622,270.054 142.701,270.054 145.788,263.649 149.467,266.853 
			151.959,261.275 155.044,263.057 		"/>
		<rect x="144.245" y="247.196" fill="#288BE7" width="14.36" height="1.43"/>
		<rect x="144.245" y="243.554" fill="#288BE7" width="14.36" height="1.432"/>
		<rect x="144.245" y="239.67" fill="#288BE7" width="14.36" height="1.43"/>
		<rect x="144.245" y="235.489" fill="#288BE7" width="14.36" height="1.43"/>
		<rect x="144.245" y="231.605" fill="#288BE7" width="14.36" height="1.43"/>
		<path fill="#288BE7" d="M155.954,215.145v5.709c0,1.074-0.786,1.944-1.753,1.944h-27.049c-0.97,0-1.755-0.87-1.755-1.944v-5.709
			c0-1.074,0.785-1.946,1.755-1.946H154.2C155.167,213.198,155.954,214.07,155.954,215.145z"/>
		<path fill="#288BE7" d="M146.529,210.57c0,0.639-0.103,1.251-0.292,1.825h-3.274c0.399-0.501,0.64-1.134,0.64-1.825
			c0-1.615-1.313-2.927-2.927-2.927c-1.617,0-2.926,1.312-2.926,2.927c0,0.69,0.24,1.324,0.64,1.825h-3.276
			c-0.188-0.574-0.29-1.187-0.29-1.825c0-3.231,2.622-5.854,5.853-5.854C143.908,204.717,146.529,207.339,146.529,210.57z"/>
		<path fill="#288BE7" d="M131.369,230.573c4.788,0,8.67,3.881,8.67,8.669s-3.882,8.67-8.67,8.67s-8.669-3.882-8.669-8.67h8.669
			V230.573z"/>
		<rect x="122.193" y="272.266" fill="#288BE7" width="14.36" height="1.43"/>
		<rect x="122.193" y="268.624" fill="#288BE7" width="14.36" height="1.43"/>
		<rect x="122.193" y="264.74" fill="#288BE7" width="14.36" height="1.429"/>
		<rect x="122.193" y="260.56" fill="#288BE7" width="14.36" height="1.429"/>
		<rect x="122.193" y="256.676" fill="#288BE7" width="14.36" height="1.429"/>
		<path fill="#288BE7" d="M129.924,229.226v8.671h-8.67C121.253,233.109,125.134,229.226,129.924,229.226z"/>
	</g>
</g>
<g>
	<g id="XMLID_16_">
		<g>
			<path fill="#288BE7" d="M270.935,220.148v62.175h-48.244v-62.175H270.935z M268.904,280.352v-58.229h-44.182v58.229H268.904z"/>
			<rect x="235.334" y="264.141" fill="#288BE7" width="22.959" height="2.064"/>
			<rect x="235.334" y="257.175" fill="#288BE7" width="22.959" height="2.064"/>
			<rect x="235.334" y="250.364" fill="#288BE7" width="22.959" height="2.064"/>
			<rect x="235.334" y="243.229" fill="#288BE7" width="22.959" height="2.063"/>
			<rect x="235.334" y="236.563" fill="#288BE7" width="22.959" height="2.063"/>
			<rect x="235.334" y="229.598" fill="#288BE7" width="22.959" height="2.063"/>
			<rect x="235.334" y="271.22" fill="#288BE7" width="9.095" height="2.063"/>
		</g>
	</g>
	<g id="XMLID_1_">
		<polygon fill="#288BE7" points="228.613,215.068 228.613,219.443 230.645,219.443 230.645,217.042 274.826,217.042 
			274.826,275.27 271.811,275.27 271.811,277.242 276.856,277.242 276.856,215.068 		"/>
	</g>
</g>
<g id="XMLID_23_">
	<g>
		<polygon fill="#288BE7" points="57.55,215.379 57.55,282.323 5.604,282.323 5.604,215.379 13.721,215.379 13.721,217.504 
			7.792,217.504 7.792,280.198 55.363,280.198 55.363,217.504 49.437,217.504 49.437,215.379 		"/>
		<path fill="#288BE7" d="M46.805,215.373v5.688c0,1.073-0.783,1.939-1.747,1.939H18.099c-0.965,0-1.748-0.866-1.748-1.939v-5.688
			c0-1.072,0.783-1.939,1.748-1.939h26.959C46.022,213.434,46.805,214.301,46.805,215.373z"/>
		<rect x="19.216" y="262.344" fill="#288BE7" width="24.722" height="2.221"/>
		<rect x="19.216" y="254.844" fill="#288BE7" width="24.722" height="2.222"/>
		<rect x="19.216" y="247.51" fill="#288BE7" width="24.722" height="2.222"/>
		<rect x="19.216" y="239.826" fill="#288BE7" width="24.722" height="2.223"/>
		<rect x="19.216" y="232.648" fill="#288BE7" width="24.722" height="2.222"/>
		<path fill="#288BE7" d="M37.411,210.813c0,0.635-0.103,1.247-0.29,1.819h-3.265c0.399-0.499,0.638-1.131,0.638-1.819
			c0-1.611-1.305-2.917-2.915-2.917c-1.611,0-2.917,1.306-2.917,2.917c0,0.688,0.239,1.32,0.638,1.819h-3.265
			c-0.188-0.572-0.291-1.185-0.291-1.819c0-3.221,2.611-5.833,5.834-5.833C34.801,204.98,37.411,207.593,37.411,210.813z"/>
		<rect x="19.216" y="269.965" fill="#288BE7" width="9.795" height="2.222"/>
	</g>
</g>
<g id="XMLID_5_">
	<g>
		<polygon fill="#288BE7" points="513.07,213.544 513.07,280.717 460.948,280.717 460.948,213.544 469.089,213.544 469.089,215.676 
			463.143,215.676 463.143,278.585 510.875,278.585 510.875,215.676 504.926,215.676 504.926,213.544 		"/>
		<path fill="#288BE7" d="M508.143,272.663c0.197,0,0.357,0.162,0.357,0.357s-0.16,0.355-0.357,0.355h-20.773
			c-0.197,0-0.357-0.16-0.357-0.355c0-0.029,0.004-0.059,0.015-0.087c-0.01-0.026-0.015-0.058-0.015-0.086V252.07
			c0-0.196,0.16-0.356,0.357-0.356c0.196,0,0.354,0.16,0.354,0.356v20.593H508.143L508.143,272.663z"/>
		<polygon fill="#288BE7" points="506.956,255.069 506.956,268.448 489.035,268.448 492.122,262.042 495.8,265.247 498.292,259.669 
			501.377,261.45 		"/>
		<rect x="490.579" y="245.589" fill="#288BE7" width="14.358" height="1.431"/>
		<rect x="490.579" y="241.948" fill="#288BE7" width="14.358" height="1.43"/>
		<rect x="490.579" y="238.063" fill="#288BE7" width="14.358" height="1.43"/>
		<rect x="490.579" y="233.883" fill="#288BE7" width="14.358" height="1.43"/>
		<rect x="490.579" y="229.999" fill="#288BE7" width="14.358" height="1.43"/>
		<path fill="#288BE7" d="M502.288,213.538v5.709c0,1.074-0.786,1.944-1.753,1.944h-27.049c-0.973,0-1.756-0.87-1.756-1.944v-5.709
			c0-1.074,0.783-1.945,1.756-1.945h27.048C501.5,211.592,502.288,212.464,502.288,213.538z"/>
		<path fill="#288BE7" d="M477.703,228.967c4.788,0,8.67,3.881,8.67,8.669s-3.882,8.67-8.67,8.67s-8.669-3.883-8.669-8.67h8.669
			V228.967z"/>
		<rect x="468.526" y="270.659" fill="#288BE7" width="14.357" height="1.43"/>
		<rect x="468.526" y="267.018" fill="#288BE7" width="14.357" height="1.431"/>
		<rect x="468.526" y="263.134" fill="#288BE7" width="14.357" height="1.429"/>
		<rect x="468.526" y="258.954" fill="#288BE7" width="14.357" height="1.428"/>
		<rect x="468.526" y="255.069" fill="#288BE7" width="14.357" height="1.43"/>
		<path fill="#288BE7" d="M476.257,227.62v8.67h-8.67C467.586,231.503,471.467,227.62,476.257,227.62z"/>
	</g>
</g>
<g>
	<g id="XMLID_4_">
		<g>
			<path fill="#288BE7" d="M617.27,218.542v62.175h-48.242v-62.175H617.27z M615.237,278.745v-58.229h-44.185v58.229H615.237z"/>
			<rect x="581.667" y="262.534" fill="#288BE7" width="22.959" height="2.063"/>
			<rect x="581.667" y="255.568" fill="#288BE7" width="22.959" height="2.063"/>
			<rect x="581.667" y="248.758" fill="#288BE7" width="22.959" height="2.065"/>
			<rect x="581.667" y="241.622" fill="#288BE7" width="22.959" height="2.063"/>
			<rect x="581.667" y="234.956" fill="#288BE7" width="22.959" height="2.063"/>
			<rect x="581.667" y="227.991" fill="#288BE7" width="22.959" height="2.063"/>
			<rect x="581.667" y="269.614" fill="#288BE7" width="9.095" height="2.063"/>
		</g>
	</g>
	<g id="XMLID_3_">
		<polygon fill="#288BE7" points="574.946,213.462 574.946,217.837 576.979,217.837 576.979,215.436 621.16,215.436 621.16,273.663 
			618.146,273.663 618.146,275.636 623.189,275.636 623.189,213.462 		"/>
	</g>
</g>
<g id="XMLID_2_">
	<g>
		<polygon fill="#288BE7" points="405.938,213.772 405.938,280.717 351.938,280.717 351.938,213.772 360.375,213.772 
			360.375,215.897 354.212,215.897 354.212,278.592 403.664,278.592 403.664,215.897 397.504,215.897 397.504,213.772 		"/>
		<path fill="#288BE7" d="M394.768,213.767v5.688c0,1.073-0.813,1.939-1.814,1.939h-28.025c-1.003,0-1.816-0.866-1.816-1.939v-5.688
			c0-1.072,0.813-1.939,1.816-1.939h28.025C393.954,211.827,394.768,212.694,394.768,213.767z"/>
		<rect x="366.087" y="260.737" fill="#288BE7" width="25.7" height="2.221"/>
		<rect x="366.087" y="253.237" fill="#288BE7" width="25.7" height="2.223"/>
		<rect x="366.087" y="245.903" fill="#288BE7" width="25.7" height="2.223"/>
		<rect x="366.087" y="238.22" fill="#288BE7" width="25.7" height="2.224"/>
		<rect x="366.087" y="231.042" fill="#288BE7" width="25.7" height="2.222"/>
		<rect x="366.087" y="268.358" fill="#288BE7" width="10.183" height="2.223"/>
	</g>
</g>
<g>
	<polyline fill="#C85A3F" points="287.032,383.371 287.032,383.369 287.032,383.369 	"/>
	<polyline fill="#A54833" points="287.032,383.892 286.511,383.892 286.511,383.369 287.032,383.369 287.032,383.371 
		287.032,383.892 	"/>
	<polyline fill="#C85A3F" points="285.988,382.326 285.988,382.326 285.988,382.326 	"/>
	<polyline fill="#A54833" points="285.988,382.847 285.466,382.847 285.466,382.326 285.988,382.326 285.988,382.326 
		285.988,382.847 	"/>
</g>
<g>
	<polyline fill="#BE583E" points="132.783,377.023 132.783,377.021 132.783,377.021 	"/>
	<polyline fill="#FFFFFF" stroke="#43AAEF" stroke-width="2" stroke-miterlimit="10" points="134.824,423.92 44.297,423.92 
		44.297,377.66 134.824,377.66 134.824,423.92 	"/>
	<polyline fill="#BE583E" points="131.678,375.919 131.678,375.917 131.678,375.917 	"/>
	<polyline fill="#FFFFFF" stroke="#43AAEF" stroke-width="2" stroke-miterlimit="10" points="131.126,375.367 131.126,420.094 
		43.746,420.094 43.746,375.367 131.126,375.367 	"/>
	<path fill="#3EA8F2" d="M62.794,414.502c0,0.281-0.023,0.559-0.062,0.828c-0.401,2.695-2.723,4.764-5.53,4.764H43.746V408.91
		h13.457C60.292,408.91,62.794,411.414,62.794,414.502"/>
	<path fill="#007AB0" d="M62.732,415.326c-0.401-2.693-2.723-4.76-5.53-4.76H43.746v-1.656h13.456c3.09,0,5.591,2.504,5.591,5.592
		C62.792,414.783,62.771,415.057,62.732,415.326"/>
	<polyline fill="#A64B36" points="43.746,408.91 43.744,408.91 43.744,375.367 43.746,375.367 43.746,375.917 43.746,376.47 
		43.746,377.021 43.746,377.574 43.746,408.91 	"/>
	<path fill="#25404E" d="M57.203,420.094L57.203,420.094c2.807,0,5.129-2.066,5.53-4.764c0-0.002,0-0.002,0-0.004
		c0,0.002,0,0.002,0,0.004C62.331,418.025,60.01,420.094,57.203,420.094L57.203,420.094"/>
	<path fill="#83959C" d="M62.794,416.158c0-0.281-0.023-0.561-0.062-0.828l0,0l0,0c0.039-0.271,0.062-0.547,0.062-0.828l0,0V416.158
		"/>
	<path fill="#1C333F" d="M62.732,415.33c0-0.002,0-0.002,0-0.004c0.039-0.271,0.06-0.543,0.06-0.824c0-3.088-2.5-5.592-5.591-5.592
		H43.746h13.457c3.089,0,5.592,2.504,5.592,5.592C62.794,414.783,62.771,415.061,62.732,415.33L62.732,415.33"/>
	<path fill="#D0EAFB" stroke="#FFFFFF" stroke-miterlimit="10" d="M57.203,364.735H26.414l-14.587,14.586v29.588h45.376
		c3.089,0,5.592,2.504,5.592,5.592v-44.174C62.794,367.238,60.292,364.735,57.203,364.735L57.203,364.735z"/>
	<polygon fill="#3EA8F2" points="26.414,379.322 26.414,364.735 11.827,379.322 	"/>
</g>
<polyline fill="none" stroke="#D0EAFB" stroke-width="2" stroke-miterlimit="10" points="63.573,417.855 128.765,417.855 
	128.765,378.063 "/>
<g>
	<polyline fill="#BE583E" points="329.372,377.023 329.372,377.021 329.372,377.021 	"/>
	<polyline fill="#FFFFFF" stroke="#43AAEF" stroke-width="2" stroke-miterlimit="10" points="331.164,423.92 240.887,423.92 
		240.887,377.66 331.164,377.66 331.164,423.92 	"/>
	<polyline fill="#BE583E" points="328.267,375.919 328.267,375.917 328.267,375.917 	"/>
	<polyline fill="#FFFFFF" stroke="#43AAEF" stroke-width="2" stroke-miterlimit="10" points="327.716,375.367 327.716,420.094 
		240.335,420.094 240.335,375.367 327.716,375.367 	"/>
	<path fill="#3EA8F2" d="M259.384,414.502c0,0.281-0.023,0.559-0.062,0.828c-0.401,2.695-2.723,4.764-5.53,4.764h-13.457V408.91
		h13.457C256.881,408.91,259.384,411.414,259.384,414.502"/>
	<path fill="#007AB0" d="M259.322,415.326c-0.401-2.693-2.723-4.76-5.53-4.76h-13.457v-1.656h13.456c3.09,0,5.591,2.504,5.591,5.592
		C259.382,414.783,259.361,415.057,259.322,415.326"/>
	<polyline fill="#A64B36" points="240.335,408.91 240.333,408.91 240.333,375.367 240.335,375.367 240.335,375.917 240.335,376.47 
		240.335,377.021 240.335,377.574 240.335,408.91 	"/>
	<path fill="#25404E" d="M253.792,420.094L253.792,420.094c2.807,0,5.129-2.066,5.53-4.764c0-0.002,0-0.002,0-0.004
		c0,0.002,0,0.002,0,0.004C258.921,418.025,256.599,420.094,253.792,420.094L253.792,420.094"/>
	<path fill="#83959C" d="M259.384,416.158c0-0.281-0.023-0.561-0.062-0.828l0,0l0,0c0.039-0.271,0.062-0.547,0.062-0.828l0,0
		V416.158"/>
	<path fill="#1C333F" d="M259.322,415.33c0-0.002,0-0.002,0-0.004c0.039-0.271,0.06-0.543,0.06-0.824c0-3.088-2.5-5.592-5.591-5.592
		h-13.456h13.457c3.089,0,5.592,2.504,5.592,5.592C259.384,414.783,259.361,415.061,259.322,415.33L259.322,415.33"/>
	<path fill="#D0EAFB" stroke="#FFFFFF" stroke-miterlimit="10" d="M253.792,364.735h-30.789l-14.587,14.586v29.588h45.376
		c3.089,0,5.592,2.504,5.592,5.592v-44.174C259.384,367.238,256.881,364.735,253.792,364.735L253.792,364.735z"/>
	<polygon fill="#3EA8F2" points="223.003,379.322 223.003,364.735 208.416,379.322 	"/>
</g>
<polyline fill="none" stroke="#D0EAFB" stroke-width="2" stroke-miterlimit="10" points="260.162,417.855 325.355,417.855 
	325.355,378.063 "/>
<polygon fill="#D7D8D9" points="284.748,399.494 264.883,399.494 264.883,395.968 283.177,395.968 "/>
<polygon fill="#D7D8D9" points="290.51,408.469 265.526,408.469 265.526,404.943 288.123,404.943 "/>
<polygon fill="#D7D8D9" points="281.528,390.25 264.883,390.25 264.883,386.726 280.967,386.726 "/>
<g>
	<polyline fill="#BE583E" points="516.852,377.906 516.852,377.904 516.852,377.904 	"/>
	<polyline fill="#FFFFFF" stroke="#43AAEF" stroke-width="2" stroke-miterlimit="10" points="517.688,423.92 428.367,423.92 
		428.367,378.542 517.688,378.542 517.688,423.92 	"/>
	<polyline fill="#BE583E" points="515.746,376.802 515.746,376.8 515.746,376.8 	"/>
	<polyline fill="#FFFFFF" stroke="#43AAEF" stroke-width="2" stroke-miterlimit="10" points="513.816,374.011 513.816,418.738 
		424.313,418.738 424.313,374.011 513.816,374.011 	"/>
	<polyline fill="#FFFFFF" stroke="#43AAEF" stroke-width="2" stroke-miterlimit="10" points="509.623,368.423 509.623,413.15 
		420.119,413.15 420.119,368.423 509.623,368.423 	"/>
</g>
<g>
	<polygon fill="#FFFFFF" points="79.139,406.332 91.789,406.332 116.721,379.871 107.424,367.097 80.375,394.685 	"/>
	<path fill="#F13100" d="M88.988,402.859l2.469-2.471l-6.376-6.377l-2.469,2.47v2.903h3.473v3.475H88.988L88.988,402.859z
		 M103.178,377.681c0-0.405-0.19-0.598-0.597-0.598c-0.189,0-0.325,0.053-0.46,0.189l-14.707,14.704
		c-0.135,0.138-0.189,0.271-0.189,0.464c0,0.405,0.189,0.596,0.597,0.596c0.19,0,0.326-0.055,0.462-0.189l14.705-14.705
		C103.123,378.007,103.178,377.869,103.178,377.681L103.178,377.681z M101.713,372.47L113,383.757l-22.574,22.575H79.139v-11.288
		L101.713,372.47z M120.244,375.076c0,0.949-0.326,1.764-1.003,2.438l-4.504,4.507l-11.287-11.287l4.503-4.478
		c0.652-0.68,1.465-1.031,2.442-1.031c0.95,0,1.791,0.354,2.47,1.031l6.376,6.351C119.918,373.31,120.244,374.126,120.244,375.076z"
		/>
</g>
<radialGradient id="SVGID_1_" cx="-163.5728" cy="2258.1709" r="22.2356" gradientTransform="matrix(1.3461 -0.0308 0.0011 0.281 526.8887 -229.3311)" gradientUnits="userSpaceOnUse">
	<stop  offset="0" style="stop-color:#000000;stop-opacity:0.3"/>
	<stop  offset="0.8011" style="stop-color:#F0EFEF;stop-opacity:0"/>
</radialGradient>
<path fill="url(#SVGID_1_)" d="M332.945,409.895c0,2.736-10.669,4.955-23.83,4.955c-13.162,0-23.832-2.219-23.832-4.955
	c0-2.73,10.669-4.949,23.832-4.949C322.276,404.943,332.945,407.162,332.945,409.895z"/>
<radialGradient id="SVGID_2_" cx="-234.1221" cy="2266.7598" r="22.2354" gradientTransform="matrix(1.6831 -0.0308 0.0014 0.281 488.9001 -235.8096)" gradientUnits="userSpaceOnUse">
	<stop  offset="0" style="stop-color:#000000;stop-opacity:0.3"/>
	<stop  offset="0.8011" style="stop-color:#F0EFEF;stop-opacity:0"/>
</radialGradient>
<path fill="url(#SVGID_2_)" d="M127.728,408.014c0,2.736-13.341,4.953-29.797,4.953c-16.458,0-29.799-2.217-29.799-4.953
	c0-2.73,13.341-4.949,29.799-4.949C114.387,403.063,127.728,405.281,127.728,408.014z"/>
<rect x="429.393" y="389.16" fill="#D7D8D9" width="64.598" height="3.522"/>
<rect x="429.393" y="398.134" fill="#D7D8D9" width="72.064" height="3.524"/>
<rect x="429.393" y="379.916" fill="#D7D8D9" width="54.23" height="3.525"/>
<polygon fill="#703100" points="470.018,364.014 466.754,367.277 473.834,367.277 "/>
<polygon fill="#703100" points="522.25,411.492 518.986,408.229 518.986,415.309 "/>
<polygon opacity="0.3" enable-background="new    " points="518.931,397.191 520.273,411.898 470.294,366.419 485.426,368.005 "/>
<g>
	<g>
		<circle fill="#FFFFFF" cx="310.112" cy="386.859" r="23.607"/>
		<g>
			<path fill="#F13100" d="M325.148,367.152c-0.308-0.352-0.804-0.492-1.257-0.309c-0.571,0.234-0.847,0.893-0.61,1.463
				c0.093,0.228,0.26,0.39,0.454,0.511l-0.004,0.012c5.462,4.135,9.011,10.666,9.011,18.031c0,12.479-10.152,22.629-22.63,22.629
				c-12.479,0-22.631-10.151-22.631-22.629c0-12.48,10.152-22.631,22.631-22.631c0.323,0,0.64,0.034,0.961,0.049l0.643-2.022
				c-0.171-0.053-0.338-0.114-0.497-0.183c-0.369-0.021-0.735-0.042-1.107-0.042c-13.691,0-24.829,11.138-24.829,24.83
				c0,13.688,11.138,24.829,24.829,24.829c13.689,0,24.828-11.141,24.828-24.829C334.94,378.828,331.087,371.689,325.148,367.152z"
				/>
			<path fill="#F13100" d="M320.189,363.85c0.325,0.795-0.056,1.705-0.852,2.031s-1.706-0.051-2.032-0.848
				c-0.327-0.798,0.056-1.709,0.85-2.037C318.953,362.673,319.862,363.05,320.189,363.85z"/>
			<path fill="#F13100" d="M312.27,362.729c0.234,0.571-0.039,1.227-0.612,1.46c-0.571,0.236-1.228-0.036-1.461-0.607
				c-0.235-0.576,0.039-1.229,0.61-1.465C311.379,361.881,312.034,362.154,312.27,362.729z"/>
		</g>
	</g>
	<g enable-background="new    ">
		<path fill="#F13100" d="M294.647,373.691h13.479c-0.104-0.103-0.313-0.363-0.627-0.783c-0.418-0.416-0.732-0.73-0.94-0.939
			l5.329-2.194c1.882,1.985,2.769,3.293,2.665,3.918h8.778c2.821,0,4.231,1.359,4.231,4.075v2.195h-5.643v-2.508
			c0-1.045-0.47-1.568-1.411-1.568h-20.22v3.918h-5.643L294.647,373.691L294.647,373.691z M313.926,377.455v3.447h6.896
			c3.237,0.104,4.911,1.621,5.016,4.547v7.992c0,3.346-1.673,5.069-5.016,5.174h-6.896v5.641h-5.485v-5.641h-11.913v-17.713h11.913
			v-3.447H313.926z M302.171,383.095v5.486h6.27v-5.486H302.171z M302.171,390.777v5.643h6.27v-5.643H302.171z M318.471,383.095
			h-4.545v5.486h6.27v-3.762C320.091,383.777,319.515,383.203,318.471,383.095z M318.471,396.419
			c1.044-0.104,1.62-0.783,1.725-2.039v-3.604h-6.27v5.643H318.471z"/>
	</g>
</g>
<polygon fill="#F13100" points="522.521,394.482 522.25,411.768 469.859,364.014 487.236,364.014 "/>
<g>
	
		<linearGradient id="SVGID_3_" gradientUnits="userSpaceOnUse" x1="-474.6421" y1="2595.2422" x2="-474.6421" y2="2498.2881" gradientTransform="matrix(1 0 0 1 641.3799 -2017.6201)">
		<stop  offset="0" style="stop-color:#6AA9FF"/>
		<stop  offset="0.2956" style="stop-color:#CCEDFF;stop-opacity:0.5"/>
		<stop  offset="1" style="stop-color:#FFFFFF"/>
	</linearGradient>
	
		<linearGradient id="SVGID_4_" gradientUnits="userSpaceOnUse" x1="-474.6421" y1="2596.4307" x2="-474.6421" y2="2497.2881" gradientTransform="matrix(1 0 0 1 641.3799 -2017.6201)">
		<stop  offset="0" style="stop-color:#0084E9"/>
		<stop  offset="1" style="stop-color:#94D4FF"/>
	</linearGradient>
	
		<path opacity="0.9" fill="url(#SVGID_3_)" stroke="url(#SVGID_4_)" stroke-width="2" stroke-miterlimit="10" enable-background="new    " d="
		M5.943,480.668c69.997,1.979,126.482,27.906,133.991,60.858h-29.327l56.131,36.096l56.131-36.096h-29.327
		c7.509-32.952,63.994-58.881,133.99-60.858"/>
	<path fill="none" stroke="#FFFFFF" stroke-width="2" stroke-miterlimit="10" d="M7.583,479.614
		C78.33,480.668,135.682,508.909,142.026,543h-27.04l51.752,33.281L218.491,543h-27.04c5.167-37.545,71.543-62.116,136.08-63.938"/>
</g>
<path fill="#FFFFFF" stroke="#43AAEF" stroke-width="2" stroke-miterlimit="10" d="M258.285,453.75"/>
</svg>
